<svg width="42" height="43" viewBox="0 0 42 43" fill="none" xmlns="http://www.w3.org/2000/svg">
<rect x="-0.5" y="0.5" width="41" height="41" rx="4.5" transform="matrix(-1 0 0 1 41.0001 0.766571)" stroke="#0C0C0C"/>
<path fill-rule="evenodd" clip-rule="evenodd" d="M0.128971 19.6211V5.70734C0.128971 2.94591 2.36755 0.707336 5.12897 0.707336H32.4666C32.2689 1.0456 32.0654 1.37891 31.8561 1.70734H5.12897C2.91983 1.70734 1.12897 3.4982 1.12897 5.70734V19.4257C0.797251 19.4924 0.463905 19.5575 0.128971 19.6211Z" fill="white"/>
<path d="M13.9584 22.4707V26.4791C13.9584 29.8591 17.1109 32.5999 21.0001 32.5999C24.8892 32.5999 28.0417 29.8591 28.0417 26.4791V22.4707C28.0417 25.8507 24.8892 28.2666 21.0001 28.2666C17.1109 28.2666 13.9584 25.8507 13.9584 22.4707Z" stroke="white" stroke-linecap="round" stroke-linejoin="round"/>
<path d="M13.9584 17.0541C13.9584 18.0399 14.2292 18.9499 14.7059 19.7299C15.8651 21.6366 18.2484 22.8499 21.0001 22.8499C23.7517 22.8499 26.1351 21.6366 27.2942 19.7299C27.7709 18.9499 28.0417 18.0399 28.0417 17.0541C28.0417 15.3641 27.2509 13.8366 25.9834 12.7316C24.7051 11.6157 22.9501 10.9332 21.0001 10.9332C19.0501 10.9332 17.2951 11.6157 16.0167 12.7207C14.7492 13.8366 13.9584 15.3641 13.9584 17.0541Z" stroke="white" stroke-linecap="round" stroke-linejoin="round"/>
<path d="M13.9584 17.0541V22.4707C13.9584 25.8507 17.1109 28.2666 21.0001 28.2666C24.8892 28.2666 28.0417 25.8507 28.0417 22.4707V17.0541C28.0417 13.6741 24.8892 10.9332 21.0001 10.9332C19.0501 10.9332 17.2951 11.6157 16.0167 12.7207C14.7492 13.8366 13.9584 15.3641 13.9584 17.0541Z" stroke="white" stroke-linecap="round" stroke-linejoin="round"/>
</svg>
